<svg xmlns="http://www.w3.org/2000/svg" viewBox="0 0 800 800" fill="currentColor">
  <g transform="translate(27 82)">
    <path stroke="currentColor" stroke-width="15" stroke-linejoin="round" stroke-linecap="round" d="M 19.667969 45.34375 C 48.992188 11.855469 97.738281 9.546875 137.617188 4.875 C 176.75 0.746094 216.332031 0.300781 255.664062 3.761719 C 466.492188 20.671875 629.246094 152.835938 692.914062 354.492188 C 724.792969 462.234375 725.589844 603.433594 573.851562 583.433594 C 513.578125 576.136719 453.511719 555.855469 407.488281 514.089844 C 377.882812 486.765625 352.796875 455.097656 340.25 415.839844 C 303.6875 406.902344 267.664062 393.78125 235.796875 373.386719 C 182.234375 344.210938 143.371094 296.957031 134.601562 235.296875 C 70.8125 200.613281 -41.785156 128.15625 19.667969 45.34375 Z M 152.78125 210.433594 C 185.1875 228.859375 218.988281 243.945312 254.378906 256.445312 C 289.792969 268.765625 326.511719 278.105469 364.222656 286.867188 C 303.589844 291.773438 241.5 281.753906 184.648438 259.164062 C 186.128906 264.042969 187.828125 268.820312 189.824219 273.441406 C 205.808594 311.640625 242.085938 335.796875 276.988281 356.742188 C 313.785156 380.082031 353.414062 397.039062 396.21875 410.429688 C 430.214844 421.332031 465.003906 430.503906 500.203125 438.027344 C 464.246094 435.816406 428.308594 431.917969 392.457031 426.09375 C 387.871094 425.378906 383.261719 424.605469 378.648438 423.800781 C 383.007812 432.421875 388.273438 440.839844 394.203125 448.832031 C 436.171875 508.175781 506.332031 540.316406 577.9375 546.851562 C 635.511719 554.582031 670.632812 533.0625 671.183594 472.660156 C 673.3125 400.558594 648.710938 328.367188 611.574219 265.0625 C 592.933594 233.34375 570.605469 203.347656 545.707031 176.636719 C 469.804688 95.699219 362.433594 50.621094 252.308594 40.277344 C 215.425781 36.667969 178.125 36.921875 141.109375 40.289062 C 108.464844 43.953125 67.699219 44.125 45.324219 67.496094 C 2.9375 123.988281 109.910156 185.582031 152.78125 210.433594 Z"/>
  </g>
</svg>
